<svg xmlns="http://www.w3.org/2000/svg" xmlns:xlink="http://www.w3.org/1999/xlink" width="865.029" height="659.227" viewBox="0 0 865.029 659.227">
  <defs>
    <linearGradient id="linear-gradient" x1="0.5" y1="-0.227" x2="0.5" y2="0.559" gradientUnits="objectBoundingBox">
      <stop offset="0" stop-color="#e5e5e5"/>
      <stop offset="0.476" stop-color="#f3f3f3"/>
      <stop offset="1" stop-color="#fff"/>
    </linearGradient>
    <linearGradient id="linear-gradient-2" x1="0.498" y1="0.124" x2="0.477" y2="1.014" gradientUnits="objectBoundingBox">
      <stop offset="0" stop-color="#3162df"/>
      <stop offset="0.965" stop-color="#173db8"/>
    </linearGradient>
    <linearGradient id="linear-gradient-3" x1="0.5" y1="0.3" x2="0.5" y2="0.914" gradientUnits="objectBoundingBox">
      <stop offset="0" stop-color="#ff8e00"/>
      <stop offset="1" stop-color="#ffcf01"/>
    </linearGradient>
  </defs>
  <g id="Group_4138" data-name="Group 4138" transform="translate(-575.986 -518)">
    <g id="Group_383" data-name="Group 383" transform="translate(-501.485 -112.572)">
      <path id="Path_306" data-name="Path 306" d="M1789.421,914.95a6.01,6.01,0,0,0-11.876,1.858c.863,5.6,1.961,23.135-4.091,30.192a8.075,8.075,0,0,1-4.879,2.8l.552-33.4a8.688,8.688,0,1,0-17.372.072l1.57,63.387a8.111,8.111,0,0,1-5.085-2.832c-6.05-7.056-4.953-24.6-4.091-30.192a6.01,6.01,0,1,0-11.875-1.858c-.431,2.759-3.906,27.315,6.828,39.857a20.339,20.339,0,0,0,14.523,7.139l.684,27.591h13.115l.951-57.644a20.307,20.307,0,0,0,14.219-7.117C1793.327,942.265,1789.854,917.708,1789.421,914.95Z" fill="#bdbdbd"/>
      <path id="Path_307" data-name="Path 307" d="M1229.423,968.685a3.831,3.831,0,1,0-7.57,1.184c.549,3.568,1.25,14.748-2.608,19.246a5.154,5.154,0,0,1-3.11,1.789l.351-21.293a5.538,5.538,0,1,0-11.074.046l1,40.407a5.162,5.162,0,0,1-3.241-1.805c-3.857-4.5-3.158-15.678-2.608-19.246a3.831,3.831,0,1,0-7.57-1.184c-.276,1.758-2.491,17.412,4.352,25.407a12.971,12.971,0,0,0,9.259,4.551l.435,17.588h8.36l.607-36.746a12.948,12.948,0,0,0,9.064-4.537C1231.913,986.1,1229.7,970.443,1229.423,968.685Z" fill="#bdbdbd"/>
      <ellipse id="Ellipse_40" data-name="Ellipse 40" cx="432.514" cy="153.119" rx="432.514" ry="153.119" transform="translate(1077.471 983.561)" fill="url(#linear-gradient)"/>
    </g>
    <g id="Group_394" data-name="Group 394" transform="translate(-421.293 129.098)">
      <path id="Path_310" data-name="Path 310" d="M1671.262,502.4s7.35-22.037,8.414-21.951,2.829,5.535,2.829,5.535,3.629-9.111,8.225-8.057,7.475,25.036.43,32.465Z" transform="translate(-156.771 -0.805)" fill="#ffaa9d"/>
      <path id="Path_311" data-name="Path 311" d="M1326.081,500.234s-6.6-21.254-7.671-21.22-3.1,5.39-3.1,5.39-3.179-9.277-7.822-8.449-8.69,24.641-2.014,32.405Z" transform="translate(-3.603 0)" fill="#ffaa9d"/>
      <path id="Path_312" data-name="Path 312" d="M1541.314,518.5l-29.577-8.9s-24.719,46.641-42.053,74.983a213.443,213.443,0,0,1-24.606,32.233,98.848,98.848,0,0,0-30.117-4.763,93.689,93.689,0,0,0-26.12,4.022,211.328,211.328,0,0,1-23.937-31.492c-17.333-28.342-42.052-74.983-42.052-74.983l-29.578,8.9s-.718,21.258,22.255,88.6c13.577,39.8,27.879,63.5,37.609,76.488-2.915,37.384-1.821,79.17.147,84.028,5.873,14.491,114.846,14.662,123.507-1.428,2.667-4.955,1.891-40.929-1.189-75.355,9.052-10.3,26.8-34.905,43.457-83.733C1542.032,539.762,1541.314,518.5,1541.314,518.5Z" transform="translate(0 -13.978)" fill="url(#linear-gradient-2)"/>
      <g id="Group_393" data-name="Group 393" transform="translate(1398.292 542.268)">
        <path id="Path_313" data-name="Path 313" d="M1488.987,679.694c1-5.315.894-10.78,1.337-14.123,0,0,13.724-.251,13.741-.108.2,1.775,1.127,12.845,1.219,14.151C1505.637,684.62,1487.929,685.292,1488.987,679.694Z" transform="translate(-1479.446 -620.87)" fill="#ff9f91"/>
        <path id="Path_314" data-name="Path 314" d="M1508.348,617.4c-1.787-1.66-11.978-2.554-16.829-2.554-2,0-5.219-1.828-8.065-1.534a17.2,17.2,0,0,0-8.763,4.088c-1.788,1.66-.128,19.918.894,23.366s5.951,12.386,15.935,12.386,14.913-8.938,15.935-12.386S1510.135,619.061,1508.348,617.4Z" transform="translate(-1473.208 -599.246)" fill="#ffaa9d"/>
        <path id="Path_315" data-name="Path 315" d="M1508.649,605.658c1.5-.784,3.737-8.4-3.88-9.521,0,0,2.241-7.057-6.16-6.833s-23.4,4.866-25.2,17.723A66.205,66.205,0,0,0,1475.4,635.6a16.586,16.586,0,0,0,15.568,10.381,15.626,15.626,0,0,0,14.952-10.478c1.392-4.286,4.208-11.9,3.4-21.484a5.5,5.5,0,0,0,1.611-.523C1516.643,610.586,1507.152,606.442,1508.649,605.658Zm-8.49,28.184c-3.886-1.76-5.378-2.587-9.258-2.587s-5.144.372-9.031,2.132c-4.329,1.96-8.485-15.063-4.891-20.045s4.819-5.228,5.964-9.067c0,0,6.371,5.636,12.987,4.983,0,0,2.124-.409,1.879-3.1a29.09,29.09,0,0,0,7.155,7.188C1507.74,615.325,1504.488,635.8,1500.159,633.842Z" transform="translate(-1472.718 -589.299)" fill="#14336a"/>
      </g>
    </g>
    <g id="Group_384" data-name="Group 384" transform="translate(-320.437 -15.152)">
      <path id="Rectangle_231" data-name="Rectangle 231" d="M22.658,0h161a22.658,22.658,0,0,1,22.658,22.658V157.1a22.657,22.657,0,0,1-22.657,22.657h-161A22.658,22.658,0,0,1,0,157.1V22.658A22.658,22.658,0,0,1,22.658,0Z" transform="translate(1210.395 839.004)" fill="url(#linear-gradient-3)"/>
      <path id="Path_308" data-name="Path 308" d="M1412.908,909.736H1214.2a9.527,9.527,0,0,1-9.485-10.421l4.87-51.679a9.527,9.527,0,0,1,9.485-8.633h188.973a9.527,9.527,0,0,1,9.485,8.633l4.87,51.679A9.528,9.528,0,0,1,1412.908,909.736Z" transform="translate(0 0)" fill="#ffc400"/>
      <path id="Rectangle_232" data-name="Rectangle 232" d="M6.166,0H25.288a6.166,6.166,0,0,1,6.166,6.166V36.773a0,0,0,0,1,0,0H0a0,0,0,0,1,0,0V6.166A6.166,6.166,0,0,1,6.166,0Z" transform="translate(1297.826 981.987)" fill="#fff2a6"/>
    </g>
    <path id="Path_316" data-name="Path 316" d="M1839.134,712.681l6.736,3.684-6.736,3.684-3.683,6.736-3.684-6.736-6.736-3.684,6.736-3.684,3.684-6.736Z" transform="translate(-599.03 -58.945)" fill="#ffc400"/>
    <path id="Path_317" data-name="Path 317" d="M1839.134,712.681l6.736,3.684-6.736,3.684-3.683,6.736-3.684-6.736-6.736-3.684,6.736-3.684,3.684-6.736Z" transform="translate(-905.03 82.055)" fill="#ffc400"/>
    <path id="Path_318" data-name="Path 318" d="M1839.134,712.681l6.736,3.684-6.736,3.684-3.683,6.736-3.684-6.736-6.736-3.684,6.736-3.684,3.684-6.736Z" transform="translate(-1115.03 -187.945)" fill="#ffc400"/>
  </g>
</svg>
